<?xml version="1.0" encoding="UTF-8" standalone="no"?>
<!DOCTYPE svg PUBLIC "-//W3C//DTD SVG 1.1//EN" "http://www.w3.org/Graphics/SVG/1.1/DTD/svg11.dtd">
<svg width="100%" height="100%" viewBox="0 0 1374 215" version="1.1" xmlns="http://www.w3.org/2000/svg" xmlns:xlink="http://www.w3.org/1999/xlink" xml:space="preserve" xmlns:serif="http://www.serif.com/" style="fill-rule:evenodd;clip-rule:evenodd;stroke-linejoin:round;stroke-miterlimit:2;">
    <g transform="matrix(1,0,0,1,-276.062,-433.5)">
        <g transform="matrix(1,0,0,1,-327,83.5)">
            <g>
                <g transform="matrix(288,0,0,288,597.859,560.516)">
                    <path d="M0.221,-0L0.018,-0L0.018,-0.545L0.193,-0.545L0.193,-0.432C0.219,-0.514 0.266,-0.555 0.335,-0.555C0.338,-0.555 0.362,-0.553 0.364,-0.553L0.364,-0.361C0.345,-0.365 0.331,-0.367 0.323,-0.367C0.288,-0.367 0.263,-0.358 0.246,-0.338C0.229,-0.319 0.221,-0.289 0.221,-0.249L0.221,-0Z" style="fill:rgb(28,30,38);fill-rule:nonzero;"/>
                </g>
                <g transform="matrix(288,0,0,288,695.593,560.516)">
                    <path d="M0.387,-0.193C0.375,-0.151 0.348,-0.13 0.305,-0.13C0.274,-0.13 0.253,-0.138 0.241,-0.155C0.23,-0.171 0.223,-0.195 0.222,-0.228L0.582,-0.228C0.582,-0.342 0.554,-0.426 0.498,-0.481C0.472,-0.505 0.442,-0.523 0.406,-0.536C0.37,-0.549 0.333,-0.555 0.294,-0.555C0.208,-0.555 0.138,-0.528 0.084,-0.475C0.057,-0.448 0.036,-0.416 0.021,-0.379C0.007,-0.343 0,-0.305 0,-0.266C0,-0.225 0.008,-0.187 0.024,-0.15C0.04,-0.113 0.063,-0.082 0.094,-0.056C0.121,-0.034 0.152,-0.017 0.188,-0.005C0.224,0.007 0.261,0.013 0.299,0.013C0.331,0.013 0.361,0.009 0.392,0.001C0.423,-0.007 0.451,-0.019 0.477,-0.036C0.503,-0.052 0.526,-0.073 0.544,-0.097C0.562,-0.121 0.575,-0.149 0.582,-0.18L0.387,-0.193ZM0.373,-0.337L0.222,-0.337C0.222,-0.399 0.247,-0.43 0.297,-0.43C0.321,-0.43 0.34,-0.421 0.352,-0.403C0.364,-0.385 0.371,-0.363 0.373,-0.337Z" style="fill:rgb(28,30,38);fill-rule:nonzero;"/>
                </g>
                <g transform="matrix(288,0,0,288,881.061,560.516)">
                    <path d="M0.235,-0.545L0.026,-0.545L0.026,-0.35L0.235,-0.35L0.235,-0.545ZM0.235,-0.195L0.026,-0.195L0.026,-0L0.235,-0L0.235,-0.195Z" style="fill:rgb(75,142,255);fill-rule:nonzero;"/>
                </g>
                <g transform="matrix(288,0,0,288,969.497,560.516)">
                    <path d="M0.635,-0.731L0.635,-0L0.412,-0L0.412,-0.282L0.243,-0.282L0.243,-0L0.021,-0L0.021,-0.731L0.243,-0.731L0.243,-0.462L0.412,-0.462L0.412,-0.731L0.635,-0.731Z" style="fill:rgb(28,30,38);fill-rule:nonzero;"/>
                </g>
                <g transform="matrix(288,0,0,288,1158.22,560.516)">
                    <path d="M0.548,-0.545L0.548,-0L0.348,-0L0.348,-0.081C0.318,-0.02 0.263,0.01 0.182,0.01C0.13,0.01 0.09,-0.004 0.063,-0.032C0.035,-0.061 0.021,-0.102 0.021,-0.154L0.021,-0.545L0.233,-0.545L0.233,-0.201C0.233,-0.179 0.236,-0.164 0.242,-0.156C0.248,-0.148 0.259,-0.144 0.275,-0.144C0.295,-0.144 0.31,-0.15 0.321,-0.163C0.332,-0.176 0.337,-0.195 0.337,-0.219L0.337,-0.545L0.548,-0.545Z" style="fill:rgb(28,30,38);fill-rule:nonzero;"/>
                </g>
                <g transform="matrix(288,0,0,288,1320.64,560.516)">
                    <path d="M0.837,-0L0.632,-0L0.632,-0.341C0.632,-0.382 0.617,-0.402 0.588,-0.402C0.548,-0.402 0.528,-0.373 0.528,-0.315L0.528,-0L0.325,-0L0.325,-0.341C0.325,-0.383 0.308,-0.404 0.275,-0.404C0.241,-0.404 0.224,-0.383 0.224,-0.341L0.224,-0L0.021,-0L0.021,-0.545L0.211,-0.545L0.211,-0.472C0.228,-0.499 0.25,-0.519 0.278,-0.533C0.305,-0.547 0.334,-0.554 0.364,-0.554C0.393,-0.554 0.421,-0.547 0.446,-0.533C0.472,-0.519 0.494,-0.499 0.51,-0.472C0.529,-0.498 0.554,-0.518 0.584,-0.533C0.614,-0.549 0.645,-0.556 0.676,-0.556C0.723,-0.556 0.762,-0.542 0.793,-0.513C0.81,-0.496 0.822,-0.478 0.828,-0.458C0.834,-0.437 0.837,-0.408 0.837,-0.369L0.837,-0Z" style="fill:rgb(28,30,38);fill-rule:nonzero;"/>
                </g>
                <g transform="matrix(288,0,0,288,1568,560.516)">
                    <path d="M0.578,-0L0.377,-0C0.372,-0.024 0.369,-0.046 0.369,-0.066L0.369,-0.075C0.35,-0.049 0.324,-0.028 0.29,-0.012C0.257,0.003 0.222,0.01 0.185,0.01C0.153,0.01 0.124,0.004 0.097,-0.008C0.069,-0.02 0.048,-0.038 0.031,-0.062C0.014,-0.086 0.006,-0.115 0.006,-0.15C0.006,-0.204 0.025,-0.246 0.062,-0.275C0.1,-0.305 0.144,-0.324 0.194,-0.334C0.245,-0.344 0.299,-0.35 0.358,-0.353C0.358,-0.37 0.357,-0.382 0.354,-0.391C0.351,-0.399 0.346,-0.406 0.339,-0.411C0.327,-0.422 0.311,-0.427 0.293,-0.427C0.274,-0.427 0.257,-0.422 0.242,-0.411C0.226,-0.399 0.218,-0.384 0.215,-0.365L0.021,-0.385C0.029,-0.416 0.043,-0.443 0.061,-0.465C0.08,-0.487 0.101,-0.504 0.127,-0.518C0.152,-0.531 0.179,-0.541 0.209,-0.546C0.238,-0.552 0.269,-0.555 0.301,-0.555C0.361,-0.555 0.417,-0.545 0.467,-0.526C0.517,-0.506 0.547,-0.472 0.557,-0.422C0.56,-0.4 0.561,-0.367 0.561,-0.323L0.561,-0.104C0.561,-0.081 0.562,-0.063 0.564,-0.05C0.566,-0.037 0.571,-0.02 0.578,-0ZM0.358,-0.253C0.312,-0.249 0.278,-0.24 0.257,-0.225C0.235,-0.211 0.224,-0.191 0.224,-0.166C0.224,-0.15 0.229,-0.137 0.239,-0.128C0.249,-0.12 0.262,-0.115 0.276,-0.115C0.291,-0.115 0.306,-0.12 0.321,-0.129C0.336,-0.138 0.346,-0.15 0.35,-0.164C0.356,-0.179 0.358,-0.198 0.358,-0.222L0.358,-0.238C0.358,-0.243 0.358,-0.248 0.358,-0.253Z" style="fill:rgb(28,30,38);fill-rule:nonzero;"/>
                </g>
                <g transform="matrix(288,0,0,288,1736.18,560.516)">
                    <path d="M0.548,-0L0.335,-0L0.335,-0.343C0.335,-0.367 0.332,-0.384 0.325,-0.394C0.319,-0.403 0.307,-0.408 0.291,-0.408C0.251,-0.408 0.231,-0.381 0.231,-0.327L0.231,-0L0.021,-0L0.021,-0.545L0.219,-0.545L0.219,-0.475C0.234,-0.5 0.256,-0.52 0.286,-0.535C0.315,-0.549 0.346,-0.556 0.379,-0.556C0.431,-0.556 0.473,-0.541 0.504,-0.509C0.522,-0.492 0.534,-0.473 0.54,-0.452C0.546,-0.431 0.548,-0.396 0.548,-0.348L0.548,-0Z" style="fill:rgb(28,30,38);fill-rule:nonzero;"/>
                </g>
                <g transform="matrix(288,0,0,288,1918.77,560.516)">
                    <rect x="0" y="-0.193" width="0.201" height="0.193" style="fill:rgb(28,30,38);fill-rule:nonzero;"/>
                </g>
            </g>
        </g>
    </g>
</svg>
