<?xml version="1.0" encoding="UTF-8"?>
<svg id="Layer_2" data-name="Layer 2" xmlns="http://www.w3.org/2000/svg" viewBox="0 0 644.37 510.24">
  <defs>
    <style>
      .cls-1 {
        fill: #ee2d30;
      }
    </style>
  </defs>
  <g id="Vertical">
    <g>
      <g>
        <path class="cls-1" d="M383.71,127.81h.53c4.45,0,7.54-4.42,6.03-8.61-5.01-13.88-16.03-24.89-29.92-29.87-4.18-1.5-8.6,1.59-8.6,6.03v.53c0,2.76,1.8,5.13,4.39,6.08,9.95,3.66,17.83,11.52,21.5,21.46,.95,2.58,3.32,4.37,6.07,4.37Z"/>
        <path class="cls-1" d="M303.08,127.81h.53c2.75,0,5.12-1.79,6.07-4.37,3.69-9.98,11.6-17.87,21.61-21.5,2.6-.95,4.41-3.32,4.41-6.08v-.53c0-4.44-4.4-7.52-8.59-6.04-13.95,4.96-25.04,15.99-30.06,29.91-1.51,4.18,1.58,8.61,6.03,8.61Z"/>
        <path class="cls-1" d="M335.69,176.63v-.53c0-2.77-1.8-5.14-4.4-6.08-10.08-3.67-18.04-11.64-21.69-21.73-.94-2.6-3.32-4.41-6.09-4.41h-.53c-4.44,0-7.52,4.4-6.04,8.58,4.97,14.06,16.11,25.21,30.16,30.21,4.18,1.49,8.59-1.59,8.59-6.03Z"/>
        <path class="cls-1" d="M384.34,143.87h-.53c-2.77,0-5.14,1.81-6.09,4.42-3.64,10.05-11.56,18-21.58,21.69-2.59,.95-4.38,3.32-4.38,6.07v.53c0,4.45,4.42,7.53,8.6,6.03,13.98-5.02,25.06-16.15,30.02-30.16,1.48-4.18-1.6-8.58-6.04-8.58Z"/>
        <path class="cls-1" d="M303.08,77.88c8.05-5.63,17.35-9.53,27.38-11.39,3.03-.56,5.23-3.19,5.23-6.27V6.42c0-3.83-3.34-6.8-7.14-6.38-63.34,7-113.71,57.31-120.8,120.62-.43,3.8,2.55,7.15,6.38,7.15h53.78c3.08,0,5.7-2.2,6.27-5.22,3.52-18.44,14.08-34.35,28.9-44.71Z"/>
        <path class="cls-1" d="M351.75,211.77v10.53c0,3.91,3.48,6.98,7.34,6.34,39.55-6.56,70.79-37.86,77.27-77.44,.63-3.85-2.44-7.32-6.34-7.32h-10.52c-3.08,0-5.71,2.2-6.27,5.23-5.35,28.54-27.74,50.97-56.25,56.4-3.02,.57-5.22,3.19-5.22,6.27Z"/>
        <path class="cls-1" d="M267.83,143.87h-30.86c-3.84,0-6.85,3.36-6.37,7.17,6.58,52.27,45.66,91.34,97.92,97.96,3.81,.48,7.18-2.53,7.18-6.37v-30.84c0-3.08-2.2-5.7-5.23-6.27-28.57-5.38-51.01-27.84-56.37-56.42-.57-3.03-3.19-5.23-6.27-5.23Z"/>
      </g>
      <g>
        <g>
          <path d="M77.3,356.58c-1.29,2.03-4.12,2.84-6.22,1.68-4.86-2.69-11.16-4.26-16.58-4.26-8.22,0-15.93,3.04-21.21,8.32-5.28,5.28-8.52,12.79-8.52,21.21s2.94,15.42,8.73,21.21c5.78,5.78,12.79,8.73,21.01,8.73,5.41,0,11.51-1.43,16.09-3.96,2-1.1,4.76-.37,6.06,1.51l5.99,8.64c1.48,2.13,.99,5.1-1.15,6.56-8.15,5.58-16.96,8.47-28.2,8.47-15.02,0-28.62-5.78-38.05-15.22-9.44-9.44-15.22-22.22-15.22-35.72s5.48-26.89,15.22-35.92c10.05-9.44,22.93-15.02,38.26-15.02,11.34,0,20.05,2.78,28.22,8.55,2.04,1.44,2.56,4.26,1.22,6.38l-5.62,8.86Z"/>
          <path d="M108.07,270.08h17.91c1.95,0,3.53,1.58,3.53,3.53v67.1c10.25-4.97,19.28-7.92,30.14-7.92s20.7,3.86,28.42,10.86c7.71,7.2,12.48,17.35,12.48,29.23v53.92c0,2.61-2.12,4.73-4.73,4.73h-15.5c-2.61,0-4.73-2.12-4.73-4.73v-50.37c0-5.38-1.42-10.15-4.16-14.11-3.75-5.38-9.03-8.12-15.93-8.12-5.38,0-10.86,1.12-16.24,3.35-4.46,1.83-7.71,3.65-9.74,5.38v63.87c0,2.61-2.12,4.73-4.73,4.73h-15.5c-2.61,0-4.73-2.12-4.73-4.73v-153.2c0-1.95,1.58-3.53,3.53-3.53Z"/>
          <path d="M239.22,287.33c8.93,0,14.71,6.09,14.71,14.11s-5.89,14.11-14.71,14.11c-4.26,0-7.81-1.42-10.55-4.16-2.84-2.74-4.26-6.09-4.26-9.95,0-8.02,6.19-14.11,14.82-14.11Zm-7.75,48.81h15.5c2.61,0,4.73,2.12,4.73,4.73v85.93c0,2.61-2.12,4.73-4.73,4.73h-15.5c-2.61,0-4.73-2.12-4.73-4.73v-85.93c0-2.61,2.12-4.73,4.73-4.73Z"/>
          <path d="M347.99,356.58c-1.29,2.03-4.12,2.84-6.22,1.68-4.86-2.69-11.16-4.26-16.58-4.26-8.22,0-15.93,3.04-21.21,8.32-5.28,5.28-8.52,12.79-8.52,21.21s2.94,15.42,8.73,21.21c5.78,5.78,12.79,8.73,21.01,8.73,5.41,0,11.51-1.43,16.09-3.96,2-1.1,4.76-.37,6.06,1.51l5.99,8.64c1.48,2.13,.99,5.1-1.15,6.56-8.15,5.58-16.96,8.47-28.2,8.47-15.02,0-28.62-5.78-38.06-15.22-9.44-9.44-15.22-22.22-15.22-35.72s5.48-26.89,15.22-35.92c10.05-9.44,22.94-15.02,38.26-15.02,11.34,0,20.05,2.78,28.22,8.55,2.04,1.44,2.56,4.26,1.22,6.38l-5.62,8.86Z"/>
          <path d="M437.74,418.65c-8.52,9.44-19.69,16.04-32.17,16.04s-22.53-5.18-29.94-14.41c-7.2-8.93-11.26-20.91-11.26-34.3,0-15.83,5.38-29.23,14.82-38.56,9.44-9.44,23.34-14.61,39.48-14.61,8.42,0,17.46,2.13,26.99,6.29,6.44,3,11.5,6.23,15.24,9.62,1.01,.91,1.6,2.2,1.6,3.56v74.54c0,2.61-2.12,4.73-4.73,4.73h-15.3c-2.61,0-4.73-2.12-4.73-4.73v-8.16Zm-9.74-11.47c3.75-2.94,7-7,9.74-12.38v-32.68c-1.22-.81-2.13-1.52-2.64-2.13-2.74-2.13-6.09-3.75-9.84-4.97-2.54-.71-4.87-1.01-7-1.01-8.22,0-15.02,2.64-20.6,7.92-5.68,5.68-8.52,12.99-8.52,22.02,0,18.57,8.83,29.33,25.17,29.33,4.36-.1,8.93-2.13,13.7-6.09Z"/>
          <path d="M574.39,431.54h-15.5c-2.61,0-4.73-2.12-4.73-4.73v-50.37c0-6.09-.81-10.76-2.43-14.11-2.94-5.38-7.81-8.12-14.61-8.12-9.44,0-17.25,4.16-22.83,8.32l-.61,.41v63.87c0,2.61-2.12,4.73-4.73,4.73h-15.5c-2.61,0-4.73-2.12-4.73-4.73v-72.44c0-1.39,.59-2.73,1.66-3.61,5.54-4.56,12.49-8.47,20.77-11.87,9.95-3.96,18.88-5.99,26.79-6.09,12.48,0,23.34,4.36,30.54,12.08,12.69-8.02,24.36-12.08,35.01-12.08,12.08,0,21.82,3.65,29.43,11.06,7.41,7.2,11.47,17.25,11.47,29.53v53.42c0,2.61-2.12,4.73-4.73,4.73h-15.3c-2.61,0-4.73-2.12-4.73-4.73v-50.37c0-6.09-.81-10.76-2.43-14.11-2.94-5.38-7.92-8.12-15.02-8.12-4.26,0-9.03,1.22-14.31,3.55-3.35,1.52-6.39,3.45-9.34,5.58l-.41,.41c.71,3.45,1.01,6.7,1.01,9.64v53.42c0,2.61-2.12,4.73-4.73,4.73Z"/>
        </g>
        <g>
          <path d="M24.51,503.99c.25-.46,.84-.58,1.28-.28,2.53,1.7,4.72,2.37,7.21,2.37,4.06,0,6.08-1.73,6.12-5.17,0-1.21-.46-2.22-1.34-3.11-.88-.88-2.52-1.77-4.84-2.65-2.32-.95-4.09-1.99-5.33-3.21-1.83-1.7-2.75-3.73-2.75-6.05s.85-4.15,2.52-5.63c1.7-1.57,4.09-2.35,7.13-2.32,3.26,0,6.26,.73,8.08,1.97,.37,.25,.44,.77,.21,1.15l-1.06,1.75c-.25,.41-.78,.55-1.2,.29-1.3-.81-3.32-1.37-5.38-1.37-1.73,0-3.07,.43-3.96,1.28-.88,.85-1.34,1.8-1.34,2.88,0,2.58,1.96,4.02,6.18,5.82,.26,.13,1.01,.52,2.29,1.18,1.24,.65,2.32,1.37,3.27,2.19,1.7,1.57,2.55,3.57,2.52,6.02,0,2.39-.95,4.68-2.75,6.38-1.96,1.83-4.61,2.75-7.95,2.75-3.68,0-6.94-1.02-9.78-3.09-.36-.26-.46-.77-.24-1.16l1.11-2Z"/>
          <path d="M601.47,503.99c.25-.46,.84-.58,1.28-.28,2.53,1.7,4.72,2.37,7.21,2.37,4.06,0,6.08-1.73,6.12-5.17,0-1.21-.46-2.22-1.34-3.11-.88-.88-2.52-1.77-4.84-2.65-2.32-.95-4.09-1.99-5.33-3.21-1.83-1.7-2.75-3.73-2.75-6.05s.85-4.15,2.52-5.63c1.7-1.57,4.09-2.35,7.13-2.32,3.26,0,6.26,.73,8.08,1.97,.37,.25,.44,.77,.21,1.15l-1.06,1.75c-.25,.41-.78,.55-1.2,.29-1.3-.81-3.32-1.37-5.38-1.37-1.73,0-3.07,.43-3.96,1.28-.88,.85-1.34,1.8-1.34,2.88,0,2.58,1.96,4.02,6.18,5.82,.26,.13,1.01,.52,2.29,1.18,1.24,.65,2.32,1.37,3.27,2.19,1.7,1.57,2.55,3.57,2.52,6.02,0,2.39-.95,4.68-2.75,6.38-1.96,1.83-4.61,2.75-7.95,2.75-3.68,0-6.94-1.02-9.78-3.09-.36-.26-.46-.77-.24-1.16l1.11-2Z"/>
          <path d="M124.04,463.95v14.03c0,.49,.39,.88,.88,.88h6.22c.49,0,.88,.39,.88,.88v2.39c0,.49-.39,.88-.88,.88h-6.22c-.49,0-.88,.39-.88,.88v16.55c0,3.66,1.14,5.43,4.02,5.43,.92,0,1.81-.23,2.67-.67,.45-.23,.99-.1,1.23,.34l.99,1.88c.21,.4,.09,.88-.28,1.14-1.25,.89-3.15,1.66-5.5,1.66-2.71,0-4.71-.72-5.95-2.16-1.47-1.6-2.22-4.22-2.22-7.82v-36.31c0-.49,.39-.88,.88-.88h3.27c.49,0,.88,.39,.88,.88Z"/>
          <path d="M209.12,478.87h3.27c.49,0,.88,.39,.88,.88v16.49c0,2.22,.49,4.15,1.47,5.82,1.54,2.52,3.83,3.76,6.9,3.76,2.26,0,4.51-.49,6.71-1.5,1.42-.64,2.56-1.3,3.41-1.99,.21-.17,.31-.42,.31-.69v-21.89c0-.49,.39-.88,.88-.88h3.21c.49,0,.88,.39,.88,.88v24.21c0,.27-.11,.52-.32,.69-1.76,1.48-3.82,2.7-6.19,3.62-3.04,1.28-6.05,1.93-9.09,1.96-3.96,0-7.2-1.37-9.71-4.09-2.22-2.39-3.5-5.63-3.5-9.13v-17.27c0-.49,.39-.88,.88-.88Z"/>
          <path d="M335.71,479.36v-21.23c0-.49,.39-.88,.88-.88h3.27c.49,0,.88,.39,.88,.88v47.07l-.33,.26c-1.24,1.11-2.94,2.13-5.1,3.07-2.55,1.11-5.33,1.67-8.31,1.7-4.84,0-8.96-1.73-11.71-4.78-2.75-2.88-4.28-6.83-4.28-11.32s1.57-8.47,4.35-11.45c2.75-3.04,6.64-4.74,11.12-4.74,2.91,0,5.55,.72,7.91,2.17,.57,.35,1.31-.09,1.31-.76Zm0,6.82c0-.26-.12-.52-.31-.69-2.53-2.19-4.9-3.19-8.32-3.19-3.14,0-6.02,1.21-7.98,3.34-1.96,2.13-3.14,5.07-3.14,8.31,0,3.53,1.01,6.38,3.01,8.5,1.96,2.22,4.61,3.33,7.98,3.37,4.02,0,6.38-1.14,8.44-2.55l.33-.29v-16.8Z"/>
          <path d="M419.59,465.13c2.06,0,3.43,1.44,3.43,3.3s-1.37,3.21-3.43,3.21-3.34-1.34-3.34-3.21,1.28-3.3,3.34-3.3Zm-1.6,13.74h3.27c.49,0,.88,.39,.88,.88v28.66c0,.49-.39,.88-.88,.88h-3.27c-.49,0-.88-.39-.88-.88v-28.66c0-.49,.39-.88,.88-.88Z"/>
          <path d="M500.71,482.57c3.04-2.98,7.16-4.61,11.78-4.61s8.77,1.64,11.74,4.61c3.04,3.04,4.74,7.03,4.74,11.38s-1.73,8.5-4.74,11.51c-3.04,3.04-7.13,4.78-11.81,4.78s-8.73-1.8-11.78-4.84c-2.97-2.98-4.68-7-4.68-11.45s1.7-8.37,4.74-11.38Zm3.57,19.89c2.22,2.22,5.1,3.5,8.21,3.5s6.02-1.28,8.24-3.5c2.13-2.22,3.37-5.2,3.37-8.5s-1.11-6.12-3.37-8.44c-2.13-2.13-5-3.27-8.24-3.27s-6.08,1.15-8.21,3.27c-2.26,2.26-3.4,5.07-3.43,8.44,0,3.4,1.24,6.38,3.43,8.5Z"/>
        </g>
      </g>
    </g>
  </g>
</svg>